<?xml version="1.0" encoding="UTF-8"?>
<svg xmlns="http://www.w3.org/2000/svg" xmlns:xlink="http://www.w3.org/1999/xlink" width="32px" height="32px" viewBox="0 0 32 32" version="1.1">
<g id="surface1">
<path style=" stroke:none;fill-rule:nonzero;fill:rgb(87.058824%,90.980392%,25.490196%);fill-opacity:1;" d="M 25.332031 9.332031 L 21.332031 9.332031 L 21.332031 8 C 21.332031 5.054688 18.945312 2.667969 16 2.667969 C 13.054688 2.667969 10.667969 5.054688 10.667969 8 L 10.667969 9.332031 L 6.667969 9.332031 C 5.929688 9.332031 5.332031 9.929688 5.332031 10.667969 L 5.332031 25.332031 C 5.332031 27.542969 7.125 29.332031 9.332031 29.332031 L 22.667969 29.332031 C 24.875 29.332031 26.667969 27.542969 26.667969 25.332031 L 26.667969 10.667969 C 26.667969 9.929688 26.070312 9.332031 25.332031 9.332031 Z M 13.332031 8 C 13.332031 6.527344 14.527344 5.332031 16 5.332031 C 17.472656 5.332031 18.667969 6.527344 18.667969 8 L 18.667969 9.332031 L 13.332031 9.332031 Z M 24 25.332031 C 24 26.070312 23.402344 26.667969 22.667969 26.667969 L 9.332031 26.667969 C 8.597656 26.667969 8 26.070312 8 25.332031 L 8 12 L 10.667969 12 L 10.667969 13.332031 C 10.667969 14.070312 11.261719 14.667969 12 14.667969 C 12.738281 14.667969 13.332031 14.070312 13.332031 13.332031 L 13.332031 12 L 18.667969 12 L 18.667969 13.332031 C 18.667969 14.070312 19.261719 14.667969 20 14.667969 C 20.738281 14.667969 21.332031 14.070312 21.332031 13.332031 L 21.332031 12 L 24 12 Z M 24 25.332031 "/>
</g>
</svg>
