<?xml version="1.0" encoding="UTF-8"?>
<svg xmlns="http://www.w3.org/2000/svg" xmlns:xlink="http://www.w3.org/1999/xlink" width="32px" height="32px" viewBox="0 0 32 32" version="1.1">
<g id="surface1">
<path style=" stroke:none;fill-rule:nonzero;fill:rgb(87.058824%,90.980392%,25.490196%);fill-opacity:1;" d="M 25.332031 5.332031 L 6.667969 5.332031 C 4.457031 5.332031 2.667969 7.125 2.667969 9.332031 L 2.667969 22.667969 C 2.667969 24.875 4.457031 26.667969 6.667969 26.667969 L 25.332031 26.667969 C 27.542969 26.667969 29.332031 24.875 29.332031 22.667969 L 29.332031 9.332031 C 29.332031 7.125 27.542969 5.332031 25.332031 5.332031 Z M 24.785156 8 L 16.945312 15.839844 C 16.695312 16.09375 16.355469 16.234375 16 16.234375 C 15.644531 16.234375 15.304688 16.09375 15.054688 15.839844 L 7.214844 8 Z M 26.667969 22.667969 C 26.667969 23.402344 26.070312 24 25.332031 24 L 6.667969 24 C 5.929688 24 5.332031 23.402344 5.332031 22.667969 L 5.332031 9.878906 L 13.171875 17.71875 C 14.734375 19.28125 17.265625 19.28125 18.828125 17.71875 L 26.667969 9.878906 Z M 26.667969 22.667969 "/>
</g>
</svg>
