<svg width="1489.733" height="1698.268" xmlns="http://www.w3.org/2000/svg">

 <g>
  <title>background</title>
  <rect fill="none" id="canvas_background" height="402" width="582" y="-1" x="-1"/>
 </g>
 <g>
  <title>Layer 1</title>
  <path fill="#f4c3b4" id="svg_1" d="m1489.668,1540.226l-50.734,-1145.759c-0.896,-84.585 -70.35,-153.199 -155.591,-153.199l-257.892,0c-20.928,-135 -138.858,-241.268 -280.762,-241.268c-141.942,0 -259.905,106.268 -280.839,241.268l-257.537,0c-85.217,0 -154.649,68.616 -155.543,153.202l-50.706,1145.718c-0.042,0.972 -0.064,1.958 -0.064,2.933c0,85.543 69.797,155.146 155.592,155.146l1178.556,0c85.79,0 155.586,-69.583 155.586,-155.127c-0.001,-0.974 -0.022,-1.94 -0.066,-2.914zm-744.979,-1408.085c68.746,0 126.941,46.126 145.617,109.126l-291.308,0c18.686,-62.999 76.91,-109.126 145.691,-109.126zm589.458,1434.127l-1178.555,0c-12.811,0 -22.917,-9.645 -23.43,-22.062l50.674,-1145.048c0.043,-0.971 0.064,-2.111 0.064,-3.084c0,-12.695 10.283,-22.806 23.412,-22.806l253.688,0l0,241.459c0,36.49 29.51,66.07 66,66.07s66,-29.58 66,-66.07l0,-241.459l304,0l0,241.459c0,36.49 29.51,66.07 66,66.07s66,-29.58 66,-66.07l0,-241.459l255.343,0c13.153,0 23.457,10.095 23.457,22.79c0,0.974 0.021,2.023 0.064,2.998l50.706,1145.117c-0.513,12.413 -10.617,22.095 -23.423,22.095z"/>
 </g>
</svg>