<?xml version="1.0" encoding="UTF-8"?>
<svg xmlns="http://www.w3.org/2000/svg" xmlns:xlink="http://www.w3.org/1999/xlink" width="29px" height="29px" viewBox="0 0 29 29" version="1.1">
<g id="surface1">
<path style=" stroke:none;fill-rule:nonzero;fill:rgb(87.058824%,90.980392%,25.490196%);fill-opacity:1;" d="M 18.984375 15.359375 C 21.410156 13.449219 22.363281 10.207031 21.351562 7.289062 C 20.339844 4.367188 17.589844 2.410156 14.5 2.410156 C 11.410156 2.410156 8.660156 4.367188 7.648438 7.289062 C 6.636719 10.207031 7.589844 13.449219 10.015625 15.359375 C 5.882812 17.015625 2.992188 20.8125 2.5 25.242188 C 2.429688 25.910156 2.910156 26.511719 3.578125 26.582031 C 4.242188 26.65625 4.84375 26.175781 4.917969 25.507812 C 5.46875 20.617188 9.601562 16.921875 14.523438 16.921875 C 19.445312 16.921875 23.582031 20.617188 24.128906 25.507812 C 24.199219 26.121094 24.71875 26.585938 25.339844 26.582031 L 25.472656 26.582031 C 26.132812 26.507812 26.605469 25.914062 26.535156 25.253906 C 26.042969 20.8125 23.136719 17.007812 18.984375 15.359375 Z M 14.5 14.5 C 11.832031 14.5 9.667969 12.335938 9.667969 9.667969 C 9.667969 6.996094 11.832031 4.832031 14.5 4.832031 C 17.167969 4.832031 19.332031 6.996094 19.332031 9.667969 C 19.332031 12.335938 17.167969 14.5 14.5 14.5 Z M 14.5 14.5 "/>
</g>
</svg>
